<svg xmlns="http://www.w3.org/2000/svg" height="40" viewBox="0 -960 960 960" width="40"><path fill="#2271b1" d="M243.948-254.308q54.898-37.974 111.719-59.73 56.82-21.757 124.333-21.757t124.41 21.757q56.898 21.756 111.795 59.73 42.026-45.051 65.988-101.916Q806.154-413.088 806.154-480q0-136.385-94.885-231.269Q616.385-806.154 480-806.154t-231.269 94.885Q153.846-616.385 153.846-480q0 66.912 24.038 123.776 24.039 56.865 66.064 101.916Zm235.895-208.769q-50.228 0-84.548-34.478-34.321-34.478-34.321-84.705t34.478-84.548q34.478-34.32 84.705-34.32 50.228 0 84.548 34.478 34.321 34.478 34.321 84.705t-34.478 84.548q-34.478 34.32-84.705 34.32ZM480.312-120q-75.466 0-141.011-28.038-65.545-28.039-114.385-76.987-48.839-48.949-76.878-114.229Q120-404.534 120-479.921t28.038-140.746q28.039-65.359 76.987-114.307 48.949-48.949 114.229-76.988Q404.534-840 479.921-840t140.746 28.038q65.359 28.039 114.307 76.988 48.949 48.948 76.988 114.329Q840-555.265 840-480.312q0 75.466-28.038 141.011-28.039 65.545-76.988 114.385-48.948 48.839-114.329 76.878Q555.265-120 480.312-120ZM480-153.846q56.128 0 111.282-19.423 55.154-19.423 98.052-56.782-42.898-33.41-96.078-52.654Q540.077-301.949 480-301.949T366.359-283.09q-53.564 18.859-95.18 53.039 42.385 37.359 97.539 56.782Q423.872-153.846 480-153.846Zm.072-343.077q36.39 0 60.749-24.431 24.359-24.43 24.359-60.82t-24.431-60.749q-24.431-24.359-60.821-24.359t-60.749 24.43q-24.359 24.431-24.359 60.821t24.431 60.749q24.431 24.359 60.821 24.359Zm-.072-85.18Zm0 354.206Z"/></svg>